<?xml version="1.0" encoding="UTF-8"?>
<svg id="Layer_1" data-name="Layer 1" xmlns="http://www.w3.org/2000/svg" xmlns:xlink="http://www.w3.org/1999/xlink" viewBox="0 0 481.27 569.5">
  <defs>
    <style>
      .cls-1 {
        fill: url(#linear-gradient);
      }

      .cls-1, .cls-2, .cls-3, .cls-4, .cls-5 {
        stroke-width: 0px;
      }

      .cls-2 {
        fill: #282828;
      }

      .cls-3 {
        fill: #834896;
      }

      .cls-4 {
        fill: url(#linear-gradient-2);
      }

      .cls-5 {
        fill: url(#linear-gradient-3);
      }
    </style>
    <linearGradient id="linear-gradient" x1="179.4" y1="267.61" x2="179.4" y2="121.6" gradientUnits="userSpaceOnUse">
      <stop offset="0" stop-color="#834896"/>
      <stop offset="1" stop-color="#e94592"/>
    </linearGradient>
    <linearGradient id="linear-gradient-2" x1="231.29" y1="245.58" x2="231.29" y2="47.28" xlink:href="#linear-gradient"/>
    <linearGradient id="linear-gradient-3" x1="283.97" y1="266.53" x2="283.97" y2="100.73" xlink:href="#linear-gradient"/>
  </defs>
  <path class="cls-3" d="M173.93,453.48l60.05,68.74,58.08-68.74c-12.56-4.5-33.12-10.23-59.06-10.23-13.44,0-34.81,1.54-59.06,10.23Z"/>
  <path class="cls-1" d="M169.73,243.62c9.97,0,17.61,3.2,22.69,9.52,3,3.73,5.1,8.57,6.29,14.47l.56-113.85v-32.16l-39.35,32.16-.41,91.19c2.95-.86,6.33-1.33,10.2-1.33Z"/>
  <polygon class="cls-4" points="250.97 245.58 250.97 79.29 231.29 47.28 211.62 79.29 211.62 245.58 250.97 245.58"/>
  <path class="cls-5" d="M293.71,243.62c3.53,0,6.81.49,9.8,1.41l.52-108.6-39.35-35.71v35.71l-.75,130.09c2.97-14.15,14-22.91,29.78-22.91Z"/>
  <path class="cls-2" d="M193.97,336.66c.2,7.1.42,10.27.42,13.82,0,23.49-9.02,34.93-27.65,34.93s-26.83-10.65-26.83-31.57v-72.41c0-20.92,9-31.57,26.83-31.57s27.65,11.44,27.65,34.33c0,3.15,0,5.32-.42,10.44h-19.04c.42-4.13.42-5.91.42-9.06,0-14.6-1.85-18.56-8.6-18.56-6.15,0-7.79,2.96-7.79,14.41v72.41c0,11.44,1.63,14.39,7.79,14.39,6.75,0,8.6-3.94,8.6-17.95,0-3.95-.22-7.5-.42-13.62h19.04Z"/>
  <path class="cls-2" d="M255.87,251.82v17.17h-27.05v36.89h18.84v17.17h-18.84v60.38h-19.04v-131.61h46.09Z"/>
  <path class="cls-2" d="M285.58,344.57v5.72c0,13.61,2.47,17.95,9.84,17.95,5.74,0,8.6-4.53,8.6-13.01s-2.27-13.82-11.69-25.85l-9.4-13.41c-11.69-16.97-15.57-26.04-15.57-37.69,0-17.37,10.86-28.4,28.06-28.4,12.89,0,22.31,7.1,24.98,19.13,1.02,4.93,1.02,5.53,1.02,16.37l-18.63,1.78c0-6.72-.2-9.08-.62-11.84-.62-5.33-3.69-8.29-7.99-8.29-5.12,0-7.99,4.34-7.99,12.23s.82,9.88,13.52,28.23l9.62,13.41c8.8,12.43,13.72,25.85,13.72,37.1,0,17.56-10.04,27.42-27.86,27.42-10.24,0-17.39-3.16-22.73-10.07-4.5-5.91-5.94-11.44-5.94-22.88,0-2.76,0-3.95.2-7.1l18.84-.79Z"/>
  <g>
    <path class="cls-2" d="M128.18,416.25c.04,1.42.08,2.05.08,2.76,0,4.69-1.74,6.97-5.32,6.97s-5.16-2.13-5.16-6.3v-14.46c0-4.18,1.73-6.3,5.16-6.3s5.32,2.28,5.32,6.85c0,.63,0,1.06-.08,2.08h-3.66c.08-.82.08-1.18.08-1.81,0-2.92-.36-3.7-1.66-3.7-1.18,0-1.5.59-1.5,2.88v14.46c0,2.28.31,2.87,1.5,2.87,1.3,0,1.66-.79,1.66-3.58,0-.79-.04-1.5-.08-2.72h3.66Z"/>
    <path class="cls-2" d="M140.4,420.35c0,3.62-1.58,5.51-4.65,5.51s-4.69-1.89-4.69-5.51v-9.1c0-3.62,1.57-5.52,4.69-5.52s4.65,1.89,4.65,5.52v9.1ZM134.49,420.9c0,1.14.43,1.81,1.26,1.81s1.22-.67,1.22-1.81v-10.2c0-1.14-.43-1.81-1.22-1.81s-1.26.67-1.26,1.81v10.2Z"/>
    <path class="cls-2" d="M146.71,406.01v2.44c.9-1.89,2.05-2.8,3.47-2.72v3.82c-.71-.12-.95-.16-1.26-.16-1.5,0-2.21.95-2.21,2.92v13.28h-3.43v-19.58h3.43Z"/>
    <path class="cls-2" d="M161.52,418.73q.04,1.34.04,1.81c0,3.43-1.69,5.32-4.77,5.32-1.5,0-2.68-.55-3.55-1.66-.79-.98-1.06-2.05-1.06-3.86v-9.14c0-3.66,1.57-5.48,4.73-5.48,2.87,0,4.61,1.85,4.61,4.89v5.75h-5.91v4.33c0,1.42.36,2.01,1.22,2.01s1.3-.71,1.3-2.32v-1.66h3.39ZM158.1,413.65v-3.31c0-.95-.43-1.46-1.22-1.46s-1.26.55-1.26,1.46v3.31h2.48Z"/>
    <path class="cls-2" d="M180.25,399.31v3.43h-5.2v7.36h3.62v3.43h-3.62v12.05h-3.66v-26.28h8.87Z"/>
    <path class="cls-2" d="M187.86,425.59c-.12-.39-.2-.98-.23-1.57-.83,1.26-1.77,1.85-2.92,1.85-1.97,0-3-1.69-3-4.96,0-2.09.51-3.59,1.66-4.89q.83-.91,3.59-2.72c.08-.04.31-.2.67-.43v-2.21c0-1.49-.16-1.77-1.06-1.77-1.02,0-1.26.51-1.42,2.87h-3.31c.2-2.13.39-3.03.91-3.94.75-1.38,2.09-2.09,3.86-2.09,2.88,0,4.45,1.66,4.45,4.69v12.01c0,1.66.04,2.17.36,3.15h-3.55ZM187.62,415.54c-1.85,1.54-2.48,2.84-2.48,5.08,0,1.34.35,2.05,1.06,2.05.51,0,.94-.31,1.42-1.02v-6.11Z"/>
    <path class="cls-2" d="M199.92,412.86v-1.66c0-1.73-.31-2.32-1.3-2.32-.87,0-1.22.59-1.22,2.01v9.81c0,1.42.36,2.01,1.22,2.01.98,0,1.3-.59,1.3-2.32v-1.97h3.39c.08,1.54.08,1.61.08,2.09,0,3.46-1.69,5.36-4.81,5.36-1.5,0-2.68-.55-3.55-1.66-.79-.95-1.06-2.01-1.06-3.86v-9.1c0-1.85.28-2.92,1.06-3.86.87-1.1,2.05-1.66,3.55-1.66,3.07,0,4.81,1.89,4.81,5.32,0,.39,0,.51-.08,1.81h-3.39Z"/>
    <path class="cls-2" d="M209.26,402.82h-3.43v-3.51h3.43v3.51ZM209.26,425.59h-3.43v-19.58h3.43v19.58Z"/>
    <path class="cls-2" d="M212.18,399.31h3.43v26.28h-3.43v-26.28Z"/>
    <path class="cls-2" d="M221.95,402.82h-3.43v-3.51h3.43v3.51ZM221.95,425.59h-3.43v-19.58h3.43v19.58Z"/>
    <path class="cls-2" d="M229.08,409.16v11.5c0,1.26.55,1.81,1.77,1.81l.63-.04v3.15c-.98.2-1.42.28-1.97.28-2.52,0-3.86-1.38-3.86-4.02v-12.68h-1.66v-3.15h1.66v-5.36h3.43v5.36h2.4v3.15h-2.4Z"/>
    <path class="cls-2" d="M237.16,402.82h-3.43v-3.51h3.43v3.51ZM237.16,425.59h-3.43v-19.58h3.43v19.58Z"/>
    <path class="cls-2" d="M249.34,418.73q.04,1.34.04,1.81c0,3.43-1.69,5.32-4.77,5.32-1.5,0-2.68-.55-3.55-1.66-.79-.98-1.06-2.05-1.06-3.86v-9.14c0-3.66,1.57-5.48,4.73-5.48,2.87,0,4.61,1.85,4.61,4.89v5.75h-5.91v4.33c0,1.42.36,2.01,1.22,2.01s1.3-.71,1.3-2.32v-1.66h3.39ZM245.91,413.65v-3.31c0-.95-.43-1.46-1.22-1.46s-1.26.55-1.26,1.46v3.31h2.48Z"/>
    <path class="cls-2" d="M257.81,410.93v-.28c0-1.18-.39-1.77-1.14-1.77-.79,0-1.14.55-1.14,1.85,0,1.18.35,1.89,1.42,3.03l1.38,1.42c2.09,2.2,2.84,3.66,2.84,5.63,0,3.03-1.89,5.04-4.73,5.04s-4.61-1.85-4.61-4.77c0-.2,0-.28.04-.47l3.31-.24c-.04.31-.04.43-.04.63,0,1.06.47,1.69,1.3,1.69s1.3-.67,1.3-1.69c0-1.22-.36-1.89-1.97-3.58l-1.34-1.38c-1.5-1.57-2.25-3.35-2.25-5.4,0-3.27,1.57-4.92,4.73-4.92,1.85,0,3.23.87,3.82,2.36.28.75.35,1.34.35,2.6l-3.27.23Z"/>
    <path class="cls-2" d="M273.34,417.83v1.14c0,2.72.47,3.58,1.89,3.58,1.1,0,1.66-.9,1.66-2.6s-.44-2.76-2.25-5.16l-1.81-2.68c-2.25-3.39-3-5.2-3-7.53,0-3.47,2.09-5.67,5.4-5.67,2.48,0,4.29,1.42,4.81,3.82.2.98.2,1.1.2,3.27l-3.58.36c0-1.34-.04-1.81-.12-2.36-.12-1.06-.71-1.66-1.54-1.66-.98,0-1.54.87-1.54,2.44s.16,1.97,2.6,5.64l1.85,2.68c1.69,2.48,2.64,5.16,2.64,7.41,0,3.51-1.93,5.48-5.36,5.48-1.97,0-3.35-.63-4.37-2.01-.87-1.18-1.14-2.28-1.14-4.57,0-.55,0-.79.04-1.42l3.62-.16Z"/>
    <path class="cls-2" d="M292.46,420.35c0,3.62-1.57,5.51-4.65,5.51s-4.69-1.89-4.69-5.51v-9.1c0-3.62,1.57-5.52,4.69-5.52s4.65,1.89,4.65,5.52v9.1ZM286.55,420.9c0,1.14.43,1.81,1.26,1.81s1.22-.67,1.22-1.81v-10.2c0-1.14-.43-1.81-1.22-1.81s-1.26.67-1.26,1.81v10.2Z"/>
    <path class="cls-2" d="M295.34,399.31h3.43v26.28h-3.43v-26.28Z"/>
    <path class="cls-2" d="M307.79,425.59l-.28-1.69c-1.42,1.5-2.21,1.97-3.19,1.97-.83,0-1.69-.47-2.09-1.1-.43-.67-.55-1.42-.55-3.39v-15.36h3.43v15.25c0,.98.28,1.46.87,1.46.47,0,.83-.2,1.54-.79v-15.92h3.43v19.58h-3.15Z"/>
    <path class="cls-2" d="M318.12,409.16v11.5c0,1.26.55,1.81,1.77,1.81l.63-.04v3.15c-.98.2-1.42.28-1.97.28-2.52,0-3.86-1.38-3.86-4.02v-12.68h-1.66v-3.15h1.66v-5.36h3.43v5.36h2.41v3.15h-2.41Z"/>
    <path class="cls-2" d="M326.2,402.82h-3.43v-3.51h3.43v3.51ZM326.2,425.59h-3.43v-19.58h3.43v19.58Z"/>
    <path class="cls-2" d="M338.37,420.35c0,3.62-1.57,5.51-4.65,5.51s-4.69-1.89-4.69-5.51v-9.1c0-3.62,1.57-5.52,4.69-5.52s4.65,1.89,4.65,5.52v9.1ZM332.46,420.9c0,1.14.43,1.81,1.26,1.81s1.22-.67,1.22-1.81v-10.2c0-1.14-.43-1.81-1.22-1.81s-1.26.67-1.26,1.81v10.2Z"/>
    <path class="cls-2" d="M344.6,406.01l.08,1.69c1.42-1.49,2.21-1.97,3.19-1.97.83,0,1.69.47,2.09,1.1.43.67.55,1.42.55,3.39v15.36h-3.43v-15.25c0-.98-.28-1.46-.87-1.46-.47,0-.83.2-1.54.79v15.92h-3.43v-19.58h3.35Z"/>
    <path class="cls-2" d="M358.75,410.93v-.28c0-1.18-.39-1.77-1.14-1.77-.79,0-1.14.55-1.14,1.85,0,1.18.35,1.89,1.42,3.03l1.38,1.42c2.09,2.2,2.84,3.66,2.84,5.63,0,3.03-1.89,5.04-4.73,5.04s-4.61-1.85-4.61-4.77c0-.2,0-.28.04-.47l3.31-.24c-.04.31-.04.43-.04.63,0,1.06.47,1.69,1.3,1.69s1.3-.67,1.3-1.69c0-1.22-.36-1.89-1.97-3.58l-1.34-1.38c-1.5-1.57-2.25-3.35-2.25-5.4,0-3.27,1.57-4.92,4.73-4.92,1.85,0,3.23.87,3.82,2.36.28.75.35,1.34.35,2.6l-3.27.23Z"/>
  </g>
</svg>