<?xml version="1.0" encoding="UTF-8"?>
<svg id="Layer_1" data-name="Layer 1" xmlns="http://www.w3.org/2000/svg" xmlns:xlink="http://www.w3.org/1999/xlink" viewBox="0 0 1066.52 253.07">
  <defs>
    <style>
      .cls-1 {
        fill: #8a4896;
      }

      .cls-1, .cls-2, .cls-3, .cls-4, .cls-5, .cls-6, .cls-7, .cls-8, .cls-9, .cls-10, .cls-11, .cls-12, .cls-13, .cls-14, .cls-15, .cls-16, .cls-17, .cls-18, .cls-19, .cls-20, .cls-21, .cls-22, .cls-23, .cls-24, .cls-25, .cls-26, .cls-27, .cls-28, .cls-29, .cls-30, .cls-31, .cls-32, .cls-33, .cls-34, .cls-35, .cls-36, .cls-37, .cls-38, .cls-39, .cls-40, .cls-41, .cls-42, .cls-43, .cls-44, .cls-45, .cls-46, .cls-47, .cls-48, .cls-49, .cls-50, .cls-51, .cls-52, .cls-53, .cls-54, .cls-55, .cls-56, .cls-57, .cls-58, .cls-59, .cls-60, .cls-61, .cls-62, .cls-63, .cls-64, .cls-65, .cls-66, .cls-67, .cls-68, .cls-69, .cls-70, .cls-71, .cls-72, .cls-73, .cls-74, .cls-75, .cls-76, .cls-77, .cls-78, .cls-79, .cls-80, .cls-81, .cls-82, .cls-83, .cls-84, .cls-85, .cls-86, .cls-87, .cls-88, .cls-89, .cls-90, .cls-91, .cls-92, .cls-93, .cls-94, .cls-95, .cls-96, .cls-97, .cls-98, .cls-99, .cls-100, .cls-101, .cls-102, .cls-103, .cls-104, .cls-105, .cls-106, .cls-107, .cls-108 {
        stroke-width: 0px;
      }

      .cls-2 {
        fill: #e64592;
      }

      .cls-3 {
        fill: #bc4894;
      }

      .cls-4 {
        fill: #9b4895;
      }

      .cls-5 {
        fill: #9d4895;
      }

      .cls-6 {
        fill: #b74894;
      }

      .cls-7 {
        fill: #954895;
      }

      .cls-8 {
        fill: #904896;
      }

      .cls-9 {
        fill: #854896;
      }

      .cls-10 {
        fill: #b04895;
      }

      .cls-11 {
        fill: #e04692;
      }

      .cls-109 {
        clip-path: url(#clippath);
      }

      .cls-12 {
        fill: none;
      }

      .cls-13 {
        fill: #ab4895;
      }

      .cls-14 {
        fill: #c54894;
      }

      .cls-15 {
        fill: #c14894;
      }

      .cls-16 {
        fill: #b54894;
      }

      .cls-17 {
        fill: #b04894;
      }

      .cls-18 {
        fill: #a74895;
      }

      .cls-19 {
        fill: #a44895;
      }

      .cls-20 {
        fill: #c04894;
      }

      .cls-21 {
        fill: #964895;
      }

      .cls-22 {
        fill: #d34793;
      }

      .cls-23 {
        fill: #ca4893;
      }

      .cls-24 {
        fill: #9a4895;
      }

      .cls-25 {
        fill: #894896;
      }

      .cls-26 {
        fill: #874896;
      }

      .cls-27 {
        fill: #8e4896;
      }

      .cls-28 {
        fill: #b64894;
      }

      .cls-29 {
        fill: #de4692;
      }

      .cls-30 {
        fill: #a84895;
      }

      .cls-31 {
        fill: #e54692;
      }

      .cls-32 {
        fill: #d74793;
      }

      .cls-33 {
        fill: #b34894;
      }

      .cls-34 {
        fill: #ad4895;
      }

      .cls-35 {
        fill: #c64894;
      }

      .cls-36 {
        fill: #ae4895;
      }

      .cls-110 {
        clip-path: url(#clippath-1);
      }

      .cls-111 {
        clip-path: url(#clippath-2);
      }

      .cls-37 {
        fill: #d94793;
      }

      .cls-38 {
        fill: #c34894;
      }

      .cls-39 {
        fill: #bd4894;
      }

      .cls-40 {
        fill: #e94592;
      }

      .cls-41 {
        fill: #cc4793;
      }

      .cls-42 {
        fill: #a94895;
      }

      .cls-43 {
        fill: #e64692;
      }

      .cls-44 {
        fill: #bf4894;
      }

      .cls-45 {
        fill: #000;
      }

      .cls-46 {
        fill: #c94894;
      }

      .cls-47 {
        fill: #a24895;
      }

      .cls-48 {
        fill: #a54895;
      }

      .cls-49 {
        fill: #be4894;
      }

      .cls-50 {
        fill: #a14895;
      }

      .cls-51 {
        fill: #af4895;
      }

      .cls-52 {
        fill: #dd4792;
      }

      .cls-53 {
        fill: #d54793;
      }

      .cls-54 {
        fill: #944895;
      }

      .cls-55 {
        fill: #d04793;
      }

      .cls-56 {
        fill: #884896;
      }

      .cls-57 {
        fill: #c74894;
      }

      .cls-58 {
        fill: #b84894;
      }

      .cls-59 {
        fill: #e14692;
      }

      .cls-60 {
        fill: #844896;
      }

      .cls-61 {
        fill: #e24692;
      }

      .cls-62 {
        fill: #8f4896;
      }

      .cls-63 {
        fill: #da4793;
      }

      .cls-64 {
        fill: #b94894;
      }

      .cls-65 {
        fill: #e34692;
      }

      .cls-66 {
        fill: #a64895;
      }

      .cls-67 {
        fill: #914896;
      }

      .cls-68 {
        fill: #994895;
      }

      .cls-69 {
        fill: #c24894;
      }

      .cls-70 {
        fill: #cb4893;
      }

      .cls-71 {
        fill: #974895;
      }

      .cls-72 {
        fill: #dc4792;
      }

      .cls-73 {
        fill: #ce4793;
      }

      .cls-74 {
        fill: #ac4895;
      }

      .cls-75 {
        fill: #d14793;
      }

      .cls-76 {
        fill: #d44793;
      }

      .cls-77 {
        fill: #e84592;
      }

      .cls-78 {
        fill: #a34895;
      }

      .cls-79 {
        fill: #cf4793;
      }

      .cls-80 {
        fill: #c84894;
      }

      .cls-81 {
        fill: #b14894;
      }

      .cls-82 {
        fill: #db4793;
      }

      .cls-83 {
        fill: #aa4895;
      }

      .cls-84 {
        fill: #834896;
      }

      .cls-85 {
        fill: #d84793;
      }

      .cls-86 {
        fill: #9e4895;
      }

      .cls-87 {
        fill: #d24793;
      }

      .cls-88 {
        fill: #bb4894;
      }

      .cls-89 {
        fill: #cd4793;
      }

      .cls-90 {
        fill: #8b4896;
      }

      .cls-91 {
        fill: #8d4896;
      }

      .cls-92 {
        fill: #c44894;
      }

      .cls-93 {
        fill: #9c4895;
      }

      .cls-94 {
        fill: #924896;
      }

      .cls-95 {
        fill: #a04895;
      }

      .cls-96 {
        fill: #ba4894;
      }

      .cls-97 {
        fill: #984895;
      }

      .cls-98 {
        fill: #934896;
      }

      .cls-99 {
        fill: #864896;
      }

      .cls-100 {
        fill: #df4692;
      }

      .cls-101 {
        fill: #9f4895;
      }

      .cls-102 {
        fill: #b24894;
      }

      .cls-103 {
        fill: #e74592;
      }

      .cls-104 {
        fill: #e44692;
      }

      .cls-105 {
        fill: #934895;
      }

      .cls-106 {
        fill: #b44894;
      }

      .cls-107 {
        fill: #d64793;
      }

      .cls-108 {
        fill: #8c4896;
      }
    </style>
    <clipPath id="clippath">
      <path class="cls-12" d="M36.47,230.94h12.69c7.01,0,12.69-5.68,12.69-12.69l.64-128.63v-20.75l-25.39,20.75-.64,141.32Z"/>
    </clipPath>
    <clipPath id="clippath-1">
      <path class="cls-12" d="M104.69,78.44l-.69,120.77c0,14.02,11.37,25.39,25.39,25.39l.69-146.16-25.39-23.04v23.04Z"/>
    </clipPath>
    <clipPath id="clippath-2">
      <polygon class="cls-12" points="70.46 41.57 70.46 200.4 95.85 200.4 95.85 41.57 83.15 20.92 70.46 41.57"/>
    </clipPath>
  </defs>
  <path class="cls-12" d="M400.82,178.35c0,4.65,1.23,7.12,3.71,7.12,1.77,0,3.28-1.09,4.93-3.56v-21.25c-6.45,5.35-8.64,9.88-8.64,17.69Z"/>
  <path class="cls-12" d="M306.73,142.57c0-3.29-1.51-5.07-4.25-5.07s-4.39,1.92-4.39,5.07v11.52h8.64v-11.52Z"/>
  <path class="cls-12" d="M758.09,137.5c-2.88,0-4.39,2.33-4.39,6.31v35.51c0,3.97,1.51,6.3,4.39,6.3s4.25-2.32,4.25-6.3v-35.51c0-3.97-1.51-6.31-4.25-6.31Z"/>
  <path class="cls-12" d="M228.95,137.5c-2.88,0-4.39,2.33-4.39,6.31v35.51c0,3.97,1.51,6.3,4.39,6.3s4.25-2.32,4.25-6.3v-35.51c0-3.97-1.51-6.31-4.25-6.31Z"/>
  <path class="cls-12" d="M612.29,142.57c0-3.29-1.51-5.07-4.25-5.07s-4.39,1.92-4.39,5.07v11.52h8.64v-11.52Z"/>
  <path class="cls-12" d="M917.86,137.5c-2.88,0-4.39,2.33-4.39,6.31v35.51c0,3.97,1.51,6.3,4.39,6.3s4.25-2.32,4.25-6.3v-35.51c0-3.97-1.51-6.31-4.25-6.31Z"/>
  <path class="cls-45" d="M202.61,133.93c.28-3.56.28-5.07.28-7.26,0-15.91-6.17-23.85-18.51-23.85s-17.96,7.4-17.96,21.93v50.31c0,14.53,6.03,21.93,17.96,21.93s18.51-7.95,18.51-24.27c0-2.47-.15-4.67-.28-9.6h-12.75c.13,4.25.28,6.72.28,9.47,0,9.73-1.24,12.47-5.76,12.47-4.12,0-5.21-2.05-5.21-10v-50.31c0-7.96,1.09-10.01,5.21-10.01,4.52,0,5.76,2.75,5.76,12.89,0,2.19,0,3.43-.28,6.3h12.75Z"/>
  <path class="cls-45" d="M228.95,126.53c-10.83,0-16.31,6.59-16.31,19.2v31.67c0,12.6,5.48,19.19,16.31,19.19s16.19-6.59,16.19-19.19v-31.67c0-12.61-5.49-19.2-16.19-19.2ZM233.2,179.31c0,3.97-1.51,6.3-4.25,6.3-2.88,0-4.39-2.32-4.39-6.3v-35.51c0-3.97,1.51-6.31,4.39-6.31s4.25,2.33,4.25,6.31v35.51Z"/>
  <path class="cls-45" d="M267.09,135.99v-8.51h-11.93v68.13h11.93v-46.2c0-6.85,2.47-10.15,7.68-10.15,1.09,0,1.92.15,4.39.56v-13.31c-4.93-.27-8.92,2.88-12.07,9.47Z"/>
  <path class="cls-45" d="M306.86,171.77v5.76c0,5.61-1.36,8.08-4.52,8.08s-4.25-2.05-4.25-6.99v-15.08h20.56v-20.01c0-10.56-6.03-17-16.03-17-10.97,0-16.45,6.31-16.45,19.05v31.81c0,6.31.96,10,3.69,13.43,3.02,3.84,7.13,5.76,12.35,5.76,10.69,0,16.59-6.59,16.59-18.51q0-1.64-.15-6.31h-11.79ZM298.09,142.57c0-3.15,1.65-5.07,4.39-5.07s4.25,1.77,4.25,5.07v11.52h-8.64v-11.52Z"/>
  <polygon class="cls-45" points="352.95 195.62 365.69 195.62 365.69 153.67 378.31 153.67 378.31 141.74 365.69 141.74 365.69 116.11 383.8 116.11 383.8 104.18 352.95 104.18 352.95 195.62"/>
  <path class="cls-45" d="M421.38,142.85c0-10.56-5.48-16.32-15.49-16.32-6.16,0-10.83,2.47-13.43,7.27-1.79,3.16-2.47,6.31-3.16,13.71h11.52c.55-8.23,1.37-10,4.93-10,3.15,0,3.71.96,3.71,6.16v7.68c-1.24.83-2.06,1.37-2.33,1.51q-9.6,6.31-12.48,9.47c-3.97,4.52-5.76,9.73-5.76,17,0,11.37,3.57,17.27,10.43,17.27,3.97,0,7.27-2.05,10.15-6.44.13,2.05.4,4.11.81,5.48h12.35c-1.1-3.43-1.24-5.21-1.24-10.97v-41.8ZM409.46,181.91c-1.65,2.47-3.16,3.56-4.93,3.56-2.48,0-3.71-2.47-3.71-7.12,0-7.81,2.19-12.35,8.64-17.69v21.25Z"/>
  <path class="cls-45" d="M452.25,151.34h11.8c.27-4.52.27-4.93.27-6.31,0-11.92-6.03-18.51-16.72-18.51-5.21,0-9.32,1.92-12.35,5.76-2.73,3.29-3.69,6.99-3.69,13.44v31.67c0,6.44.96,10.14,3.69,13.43,3.02,3.84,7.13,5.76,12.35,5.76,10.83,0,16.72-6.59,16.72-18.64,0-1.65,0-1.92-.27-7.27h-11.8v6.85c0,6.03-1.09,8.08-4.52,8.08-3.01,0-4.25-2.05-4.25-6.99v-34.13c0-4.93,1.24-6.99,4.25-6.99,3.43,0,4.52,2.05,4.52,8.08v5.76Z"/>
  <rect class="cls-45" x="472.83" y="104.18" width="11.93" height="12.2"/>
  <rect class="cls-45" x="472.83" y="127.49" width="11.93" height="68.13"/>
  <rect class="cls-45" x="494.91" y="104.18" width="11.93" height="91.44"/>
  <rect class="cls-45" x="516.99" y="104.18" width="11.93" height="12.2"/>
  <rect class="cls-45" x="516.99" y="127.49" width="11.93" height="68.13"/>
  <path class="cls-45" d="M553.74,108.85h-11.93v18.64h-5.76v10.97h5.76v44.13c0,9.19,4.67,13.99,13.44,13.99,1.92,0,3.43-.28,6.85-.96v-10.97l-2.2.15c-4.25,0-6.16-1.92-6.16-6.31v-40.03h8.36v-10.97h-8.36v-18.64Z"/>
  <rect class="cls-45" x="569.92" y="104.18" width="11.93" height="12.2"/>
  <rect class="cls-45" x="569.92" y="127.49" width="11.93" height="68.13"/>
  <path class="cls-45" d="M612.42,171.77v5.76c0,5.61-1.37,8.08-4.52,8.08s-4.25-2.05-4.25-6.99v-15.08h20.57v-20.01c0-10.56-6.04-17-16.04-17-10.97,0-16.45,6.31-16.45,19.05v31.81c0,6.31.96,10,3.69,13.43,3.02,3.84,7.13,5.76,12.35,5.76,10.69,0,16.59-6.59,16.59-18.51q0-1.64-.13-6.31h-11.8ZM603.65,142.57c0-3.15,1.65-5.07,4.39-5.07s4.25,1.77,4.25,5.07v11.52h-8.64v-11.52Z"/>
  <path class="cls-45" d="M650.7,154.5c-3.71-3.98-4.93-6.45-4.93-10.56,0-4.52,1.23-6.44,3.97-6.44,2.6,0,3.97,2.05,3.97,6.16v.96l11.37-.81c0-4.39-.27-6.45-1.23-9.05-2.05-5.21-6.85-8.23-13.29-8.23-10.97,0-16.45,5.76-16.45,17.13,0,7.13,2.6,13.31,7.81,18.79l4.65,4.8c5.63,5.89,6.86,8.23,6.86,12.47,0,3.57-1.79,5.89-4.53,5.89s-4.52-2.19-4.52-5.89c0-.68,0-1.09.13-2.19l-11.51.83c-.15.68-.15.96-.15,1.64,0,10.15,6.17,16.59,16.04,16.59s16.45-6.99,16.45-17.55c0-6.85-2.6-11.93-9.87-19.6l-4.8-4.93Z"/>
  <path class="cls-45" d="M717.22,142.85c-8.51-12.75-9.05-13.99-9.05-19.61s1.92-8.49,5.35-8.49c2.88,0,4.93,2.05,5.35,5.76.28,1.92.41,3.56.41,8.23l12.47-1.24c0-7.53,0-7.95-.68-11.37-1.79-8.36-8.09-13.29-16.72-13.29-11.52,0-18.79,7.67-18.79,19.73,0,8.09,2.6,14.4,10.43,26.19l6.3,9.32c6.31,8.36,7.82,11.92,7.82,17.96s-1.92,9.04-5.76,9.04c-4.93,0-6.59-3.01-6.59-12.47v-3.97l-12.61.55c-.13,2.19-.13,3.01-.13,4.93,0,7.95.96,11.79,3.97,15.9,3.57,4.8,8.36,7,15.21,7,11.93,0,18.65-6.85,18.65-19.05,0-7.81-3.29-17.13-9.19-25.77l-6.44-9.32Z"/>
  <path class="cls-45" d="M758.09,126.53c-10.83,0-16.31,6.59-16.31,19.2v31.67c0,12.6,5.48,19.19,16.31,19.19s16.17-6.59,16.17-19.19v-31.67c0-12.61-5.48-19.2-16.17-19.2ZM762.34,179.31c0,3.97-1.51,6.3-4.25,6.3-2.88,0-4.39-2.32-4.39-6.3v-35.51c0-3.97,1.51-6.31,4.39-6.31s4.25,2.33,4.25,6.31v35.51Z"/>
  <rect class="cls-45" x="784.3" y="104.18" width="11.93" height="91.44"/>
  <path class="cls-45" d="M826.67,182.87c-2.47,2.05-3.71,2.73-5.35,2.73-2.05,0-3.01-1.64-3.01-5.07v-53.05h-11.93v53.47c0,6.85.41,9.45,1.92,11.79,1.37,2.2,4.39,3.84,7.27,3.84,3.43,0,6.17-1.64,11.11-6.85l.96,5.89h10.97v-68.13h-11.93v55.39Z"/>
  <path class="cls-45" d="M863.56,108.85h-11.92v18.64h-5.76v10.97h5.76v44.13c0,9.19,4.67,13.99,13.44,13.99,1.92,0,3.43-.28,6.85-.96v-10.97l-2.2.15c-4.25,0-6.17-1.92-6.17-6.31v-40.03h8.37v-10.97h-8.37v-18.64Z"/>
  <rect class="cls-45" x="879.74" y="104.18" width="11.93" height="12.2"/>
  <rect class="cls-45" x="879.74" y="127.49" width="11.93" height="68.13"/>
  <path class="cls-45" d="M917.86,126.53c-10.83,0-16.31,6.59-16.31,19.2v31.67c0,12.6,5.48,19.19,16.31,19.19s16.17-6.59,16.17-19.19v-31.67c0-12.61-5.48-19.2-16.17-19.2ZM922.11,179.31c0,3.97-1.51,6.3-4.25,6.3-2.88,0-4.39-2.32-4.39-6.3v-35.51c0-3.97,1.51-6.31,4.39-6.31s4.25,2.33,4.25,6.31v35.51Z"/>
  <path class="cls-45" d="M967.11,126.53c-3.43,0-6.17,1.65-11.11,6.85l-.28-5.89h-11.65v68.13h11.93v-55.39c2.47-2.05,3.69-2.73,5.35-2.73,2.05,0,3.01,1.64,3.01,5.07v53.05h11.93v-53.47c0-6.85-.41-9.45-1.92-11.79-1.37-2.19-4.39-3.84-7.27-3.84Z"/>
  <path class="cls-45" d="M1006.75,159.43l-4.8-4.93c-3.71-3.98-4.93-6.45-4.93-10.56,0-4.52,1.23-6.44,3.97-6.44,2.6,0,3.97,2.05,3.97,6.16v.96l11.37-.81c0-4.39-.27-6.45-1.23-9.05-2.05-5.21-6.85-8.23-13.29-8.23-10.97,0-16.45,5.76-16.45,17.13,0,7.13,2.6,13.31,7.81,18.79l4.65,4.8c5.63,5.89,6.86,8.23,6.86,12.47,0,3.57-1.79,5.89-4.53,5.89-2.88,0-4.52-2.19-4.52-5.89,0-.68,0-1.09.13-2.19l-11.51.83c-.15.68-.15.96-.15,1.64,0,10.15,6.17,16.59,16.04,16.59s16.45-6.99,16.45-17.55c0-6.85-2.6-11.93-9.87-19.6Z"/>
  <g class="cls-109">
    <rect class="cls-84" x="36.47" y="229.86" width="26.02" height="1.08"/>
    <rect class="cls-60" x="36.47" y="228.78" width="26.02" height="1.08"/>
    <rect class="cls-9" x="36.47" y="227.7" width="26.02" height="1.08"/>
    <rect class="cls-99" x="36.47" y="226.62" width="26.02" height="1.08"/>
    <rect class="cls-26" x="36.47" y="225.54" width="26.02" height="1.08"/>
    <rect class="cls-26" x="36.47" y="224.46" width="26.02" height="1.08"/>
    <rect class="cls-56" x="36.47" y="223.38" width="26.02" height="1.08"/>
    <rect class="cls-25" x="36.47" y="222.3" width="26.02" height="1.08"/>
    <rect class="cls-1" x="36.47" y="221.22" width="26.02" height="1.08"/>
    <rect class="cls-90" x="36.47" y="220.14" width="26.02" height="1.08"/>
    <rect class="cls-90" x="36.47" y="219.06" width="26.02" height="1.08"/>
    <rect class="cls-108" x="36.47" y="217.98" width="26.02" height="1.08"/>
    <rect class="cls-91" x="36.47" y="216.9" width="26.02" height="1.08"/>
    <rect class="cls-27" x="36.47" y="215.82" width="26.02" height="1.08"/>
    <rect class="cls-62" x="36.47" y="214.74" width="26.02" height="1.08"/>
    <rect class="cls-62" x="36.47" y="213.66" width="26.02" height="1.08"/>
    <rect class="cls-8" x="36.47" y="212.58" width="26.02" height="1.08"/>
    <rect class="cls-67" x="36.47" y="211.5" width="26.02" height="1.08"/>
    <rect class="cls-94" x="36.47" y="210.41" width="26.02" height="1.08"/>
    <rect class="cls-98" x="36.47" y="209.33" width="26.02" height="1.08"/>
    <rect class="cls-105" x="36.47" y="208.25" width="26.02" height="1.08"/>
    <rect class="cls-54" x="36.47" y="207.17" width="26.02" height="1.08"/>
    <rect class="cls-7" x="36.47" y="206.09" width="26.02" height="1.08"/>
    <rect class="cls-21" x="36.47" y="205.01" width="26.02" height="1.08"/>
    <rect class="cls-21" x="36.47" y="203.93" width="26.02" height="1.08"/>
    <rect class="cls-71" x="36.47" y="202.85" width="26.02" height="1.08"/>
    <rect class="cls-97" x="36.47" y="201.77" width="26.02" height="1.08"/>
    <rect class="cls-68" x="36.47" y="200.69" width="26.02" height="1.08"/>
    <rect class="cls-68" x="36.47" y="199.61" width="26.02" height="1.08"/>
    <rect class="cls-24" x="36.47" y="198.53" width="26.02" height="1.08"/>
    <rect class="cls-4" x="36.47" y="197.45" width="26.02" height="1.08"/>
    <rect class="cls-93" x="36.47" y="196.37" width="26.02" height="1.08"/>
    <rect class="cls-93" x="36.47" y="195.29" width="26.02" height="1.08"/>
    <rect class="cls-5" x="36.47" y="194.21" width="26.02" height="1.08"/>
    <rect class="cls-86" x="36.47" y="193.13" width="26.02" height="1.08"/>
    <rect class="cls-86" x="36.47" y="192.05" width="26.02" height="1.08"/>
    <rect class="cls-101" x="36.47" y="190.97" width="26.02" height="1.08"/>
    <rect class="cls-95" x="36.47" y="189.89" width="26.02" height="1.08"/>
    <rect class="cls-50" x="36.47" y="188.8" width="26.02" height="1.08"/>
    <rect class="cls-50" x="36.47" y="187.72" width="26.02" height="1.08"/>
    <rect class="cls-47" x="36.47" y="186.64" width="26.02" height="1.08"/>
    <rect class="cls-78" x="36.47" y="185.56" width="26.02" height="1.08"/>
    <rect class="cls-19" x="36.47" y="184.48" width="26.02" height="1.08"/>
    <rect class="cls-19" x="36.47" y="183.4" width="26.02" height="1.08"/>
    <rect class="cls-48" x="36.47" y="182.32" width="26.02" height="1.08"/>
    <rect class="cls-66" x="36.47" y="181.24" width="26.02" height="1.08"/>
    <rect class="cls-66" x="36.47" y="180.16" width="26.02" height="1.08"/>
    <rect class="cls-18" x="36.47" y="179.08" width="26.02" height="1.08"/>
    <rect class="cls-30" x="36.47" y="178" width="26.02" height="1.08"/>
    <rect class="cls-30" x="36.47" y="176.92" width="26.02" height="1.08"/>
    <rect class="cls-42" x="36.47" y="175.84" width="26.02" height="1.08"/>
    <rect class="cls-83" x="36.47" y="174.76" width="26.02" height="1.08"/>
    <rect class="cls-13" x="36.47" y="173.68" width="26.02" height="1.08"/>
    <rect class="cls-13" x="36.47" y="172.6" width="26.02" height="1.08"/>
    <rect class="cls-74" x="36.47" y="171.52" width="26.02" height="1.08"/>
    <rect class="cls-34" x="36.47" y="170.44" width="26.02" height="1.08"/>
    <rect class="cls-34" x="36.47" y="169.36" width="26.02" height="1.08"/>
    <rect class="cls-36" x="36.47" y="168.28" width="26.02" height="1.08"/>
    <rect class="cls-51" x="36.47" y="167.19" width="26.02" height="1.08"/>
    <rect class="cls-10" x="36.47" y="166.11" width="26.02" height="1.08"/>
    <rect class="cls-17" x="36.47" y="165.03" width="26.02" height="1.08"/>
    <rect class="cls-81" x="36.47" y="163.95" width="26.02" height="1.08"/>
    <rect class="cls-102" x="36.47" y="162.87" width="26.02" height="1.08"/>
    <rect class="cls-102" x="36.47" y="161.79" width="26.02" height="1.08"/>
    <rect class="cls-33" x="36.47" y="160.71" width="26.02" height="1.08"/>
    <rect class="cls-106" x="36.47" y="159.63" width="26.02" height="1.08"/>
    <rect class="cls-16" x="36.47" y="158.55" width="26.02" height="1.08"/>
    <rect class="cls-16" x="36.47" y="157.47" width="26.02" height="1.08"/>
    <rect class="cls-28" x="36.47" y="156.39" width="26.02" height="1.08"/>
    <rect class="cls-6" x="36.47" y="155.31" width="26.02" height="1.08"/>
    <rect class="cls-6" x="36.47" y="154.23" width="26.02" height="1.08"/>
    <rect class="cls-58" x="36.47" y="153.15" width="26.02" height="1.08"/>
    <rect class="cls-64" x="36.47" y="152.07" width="26.02" height="1.08"/>
    <rect class="cls-64" x="36.47" y="150.99" width="26.02" height="1.08"/>
    <rect class="cls-96" x="36.47" y="149.91" width="26.02" height="1.08"/>
    <rect class="cls-88" x="36.47" y="148.83" width="26.02" height="1.08"/>
    <rect class="cls-88" x="36.47" y="147.75" width="26.02" height="1.08"/>
    <rect class="cls-3" x="36.47" y="146.66" width="26.02" height="1.08"/>
    <rect class="cls-39" x="36.47" y="145.58" width="26.02" height="1.08"/>
    <rect class="cls-39" x="36.47" y="144.5" width="26.02" height="1.08"/>
    <rect class="cls-49" x="36.47" y="143.42" width="26.02" height="1.08"/>
    <rect class="cls-44" x="36.47" y="142.34" width="26.02" height="1.08"/>
    <rect class="cls-44" x="36.47" y="141.26" width="26.02" height="1.08"/>
    <rect class="cls-20" x="36.47" y="140.18" width="26.02" height="1.08"/>
    <rect class="cls-15" x="36.47" y="139.1" width="26.02" height="1.08"/>
    <rect class="cls-15" x="36.47" y="138.02" width="26.02" height="1.08"/>
    <rect class="cls-69" x="36.47" y="136.94" width="26.02" height="1.08"/>
    <rect class="cls-38" x="36.47" y="135.86" width="26.02" height="1.08"/>
    <rect class="cls-38" x="36.47" y="134.78" width="26.02" height="1.08"/>
    <rect class="cls-92" x="36.47" y="133.7" width="26.02" height="1.08"/>
    <rect class="cls-92" x="36.47" y="132.62" width="26.02" height="1.08"/>
    <rect class="cls-14" x="36.47" y="131.54" width="26.02" height="1.08"/>
    <rect class="cls-35" x="36.47" y="130.46" width="26.02" height="1.08"/>
    <rect class="cls-35" x="36.47" y="129.38" width="26.02" height="1.08"/>
    <rect class="cls-57" x="36.47" y="128.3" width="26.02" height="1.08"/>
    <rect class="cls-80" x="36.47" y="127.22" width="26.02" height="1.08"/>
    <rect class="cls-80" x="36.47" y="126.14" width="26.02" height="1.08"/>
    <rect class="cls-46" x="36.47" y="125.05" width="26.02" height="1.08"/>
    <rect class="cls-46" x="36.47" y="123.97" width="26.02" height="1.08"/>
    <rect class="cls-23" x="36.47" y="122.89" width="26.02" height="1.08"/>
    <rect class="cls-70" x="36.47" y="121.81" width="26.02" height="1.08"/>
    <rect class="cls-70" x="36.47" y="120.73" width="26.02" height="1.08"/>
    <rect class="cls-41" x="36.47" y="119.65" width="26.02" height="1.08"/>
    <rect class="cls-89" x="36.47" y="118.57" width="26.02" height="1.08"/>
    <rect class="cls-89" x="36.47" y="117.49" width="26.02" height="1.08"/>
    <rect class="cls-73" x="36.47" y="116.41" width="26.02" height="1.08"/>
    <rect class="cls-79" x="36.47" y="115.33" width="26.02" height="1.08"/>
    <rect class="cls-79" x="36.47" y="114.25" width="26.02" height="1.08"/>
    <rect class="cls-55" x="36.47" y="113.17" width="26.02" height="1.08"/>
    <rect class="cls-75" x="36.47" y="112.09" width="26.02" height="1.08"/>
    <rect class="cls-75" x="36.47" y="111.01" width="26.02" height="1.08"/>
    <rect class="cls-87" x="36.47" y="109.93" width="26.02" height="1.08"/>
    <rect class="cls-22" x="36.47" y="108.85" width="26.02" height="1.08"/>
    <rect class="cls-22" x="36.47" y="107.77" width="26.02" height="1.08"/>
    <rect class="cls-76" x="36.47" y="106.69" width="26.02" height="1.08"/>
    <rect class="cls-53" x="36.47" y="105.61" width="26.02" height="1.08"/>
    <rect class="cls-53" x="36.47" y="104.53" width="26.02" height="1.08"/>
    <rect class="cls-107" x="36.47" y="103.44" width="26.02" height="1.08"/>
    <rect class="cls-107" x="36.47" y="102.36" width="26.02" height="1.08"/>
    <rect class="cls-32" x="36.47" y="101.28" width="26.02" height="1.08"/>
    <rect class="cls-85" x="36.47" y="100.2" width="26.02" height="1.08"/>
    <rect class="cls-85" x="36.47" y="99.12" width="26.02" height="1.08"/>
    <rect class="cls-37" x="36.47" y="98.04" width="26.02" height="1.08"/>
    <rect class="cls-37" x="36.47" y="96.96" width="26.02" height="1.08"/>
    <rect class="cls-63" x="36.47" y="95.88" width="26.02" height="1.08"/>
    <rect class="cls-82" x="36.47" y="94.8" width="26.02" height="1.08"/>
    <rect class="cls-82" x="36.47" y="93.72" width="26.02" height="1.08"/>
    <rect class="cls-72" x="36.47" y="92.64" width="26.02" height="1.08"/>
    <rect class="cls-52" x="36.47" y="91.56" width="26.02" height="1.08"/>
    <rect class="cls-52" x="36.47" y="90.48" width="26.02" height="1.08"/>
    <rect class="cls-29" x="36.47" y="89.4" width="26.02" height="1.08"/>
    <rect class="cls-29" x="36.47" y="88.32" width="26.02" height="1.08"/>
    <rect class="cls-100" x="36.47" y="87.24" width="26.02" height="1.08"/>
    <rect class="cls-11" x="36.47" y="86.16" width="26.02" height="1.08"/>
    <rect class="cls-11" x="36.47" y="85.08" width="26.02" height="1.08"/>
    <rect class="cls-59" x="36.47" y="84" width="26.02" height="1.08"/>
    <rect class="cls-61" x="36.47" y="82.91" width="26.02" height="1.08"/>
    <rect class="cls-61" x="36.47" y="81.83" width="26.02" height="1.08"/>
    <rect class="cls-65" x="36.47" y="80.75" width="26.02" height="1.08"/>
    <rect class="cls-65" x="36.47" y="79.67" width="26.02" height="1.08"/>
    <rect class="cls-104" x="36.47" y="78.59" width="26.02" height="1.08"/>
    <rect class="cls-31" x="36.47" y="77.51" width="26.02" height="1.08"/>
    <rect class="cls-31" x="36.47" y="76.43" width="26.02" height="1.08"/>
    <rect class="cls-43" x="36.47" y="75.35" width="26.02" height="1.08"/>
    <rect class="cls-2" x="36.47" y="74.27" width="26.02" height="1.08"/>
    <rect class="cls-103" x="36.47" y="73.19" width="26.02" height="1.08"/>
    <rect class="cls-77" x="36.47" y="72.11" width="26.02" height="1.08"/>
    <rect class="cls-77" x="36.47" y="71.03" width="26.02" height="1.08"/>
    <rect class="cls-40" x="36.47" y="69.95" width="26.02" height="1.08"/>
    <rect class="cls-40" x="36.47" y="68.87" width="26.02" height="1.08"/>
  </g>
  <g class="cls-110">
    <rect class="cls-84" x="104" y="223.47" width="26.08" height="1.13"/>
    <rect class="cls-60" x="104" y="222.35" width="26.08" height="1.13"/>
    <rect class="cls-9" x="104" y="221.22" width="26.08" height="1.13"/>
    <rect class="cls-99" x="104" y="220.09" width="26.08" height="1.13"/>
    <rect class="cls-26" x="104" y="218.96" width="26.08" height="1.13"/>
    <rect class="cls-26" x="104" y="217.83" width="26.08" height="1.13"/>
    <rect class="cls-56" x="104" y="216.71" width="26.08" height="1.13"/>
    <rect class="cls-25" x="104" y="215.58" width="26.08" height="1.13"/>
    <rect class="cls-1" x="104" y="214.45" width="26.08" height="1.13"/>
    <rect class="cls-90" x="104" y="213.32" width="26.08" height="1.13"/>
    <rect class="cls-90" x="104" y="212.19" width="26.08" height="1.13"/>
    <rect class="cls-108" x="104" y="211.07" width="26.08" height="1.13"/>
    <rect class="cls-91" x="104" y="209.94" width="26.08" height="1.13"/>
    <rect class="cls-27" x="104" y="208.81" width="26.08" height="1.13"/>
    <rect class="cls-62" x="104" y="207.68" width="26.08" height="1.13"/>
    <rect class="cls-62" x="104" y="206.55" width="26.08" height="1.13"/>
    <rect class="cls-8" x="104" y="205.43" width="26.08" height="1.13"/>
    <rect class="cls-67" x="104" y="204.3" width="26.08" height="1.13"/>
    <rect class="cls-94" x="104" y="203.17" width="26.08" height="1.13"/>
    <rect class="cls-98" x="104" y="202.04" width="26.08" height="1.13"/>
    <rect class="cls-105" x="104" y="200.91" width="26.08" height="1.13"/>
    <rect class="cls-54" x="104" y="199.79" width="26.08" height="1.13"/>
    <rect class="cls-7" x="104" y="198.66" width="26.08" height="1.13"/>
    <rect class="cls-21" x="104" y="197.53" width="26.08" height="1.13"/>
    <rect class="cls-21" x="104" y="196.4" width="26.08" height="1.13"/>
    <rect class="cls-71" x="104" y="195.27" width="26.08" height="1.13"/>
    <rect class="cls-97" x="104" y="194.15" width="26.08" height="1.13"/>
    <rect class="cls-68" x="104" y="193.02" width="26.08" height="1.13"/>
    <rect class="cls-68" x="104" y="191.89" width="26.08" height="1.13"/>
    <rect class="cls-24" x="104" y="190.76" width="26.08" height="1.13"/>
    <rect class="cls-4" x="104" y="189.63" width="26.08" height="1.13"/>
    <rect class="cls-93" x="104" y="188.51" width="26.08" height="1.13"/>
    <rect class="cls-93" x="104" y="187.38" width="26.08" height="1.13"/>
    <rect class="cls-5" x="104" y="186.25" width="26.08" height="1.13"/>
    <rect class="cls-86" x="104" y="185.12" width="26.08" height="1.13"/>
    <rect class="cls-86" x="104" y="183.99" width="26.08" height="1.13"/>
    <rect class="cls-101" x="104" y="182.86" width="26.08" height="1.13"/>
    <rect class="cls-95" x="104" y="181.74" width="26.08" height="1.13"/>
    <rect class="cls-50" x="104" y="180.61" width="26.08" height="1.13"/>
    <rect class="cls-50" x="104" y="179.48" width="26.08" height="1.13"/>
    <rect class="cls-47" x="104" y="178.35" width="26.08" height="1.13"/>
    <rect class="cls-78" x="104" y="177.22" width="26.08" height="1.13"/>
    <rect class="cls-19" x="104" y="176.1" width="26.08" height="1.13"/>
    <rect class="cls-19" x="104" y="174.97" width="26.08" height="1.13"/>
    <rect class="cls-48" x="104" y="173.84" width="26.08" height="1.13"/>
    <rect class="cls-66" x="104" y="172.71" width="26.08" height="1.13"/>
    <rect class="cls-66" x="104" y="171.58" width="26.08" height="1.13"/>
    <rect class="cls-18" x="104" y="170.46" width="26.08" height="1.13"/>
    <rect class="cls-30" x="104" y="169.33" width="26.08" height="1.13"/>
    <rect class="cls-30" x="104" y="168.2" width="26.08" height="1.13"/>
    <rect class="cls-42" x="104" y="167.07" width="26.08" height="1.13"/>
    <rect class="cls-83" x="104" y="165.94" width="26.08" height="1.13"/>
    <rect class="cls-13" x="104" y="164.82" width="26.08" height="1.13"/>
    <rect class="cls-13" x="104" y="163.69" width="26.08" height="1.13"/>
    <rect class="cls-74" x="104" y="162.56" width="26.08" height="1.13"/>
    <rect class="cls-34" x="104" y="161.43" width="26.08" height="1.13"/>
    <rect class="cls-34" x="104" y="160.3" width="26.08" height="1.13"/>
    <rect class="cls-36" x="104" y="159.18" width="26.08" height="1.13"/>
    <rect class="cls-51" x="104" y="158.05" width="26.08" height="1.13"/>
    <rect class="cls-10" x="104" y="156.92" width="26.08" height="1.13"/>
    <rect class="cls-17" x="104" y="155.79" width="26.08" height="1.13"/>
    <rect class="cls-81" x="104" y="154.66" width="26.08" height="1.13"/>
    <rect class="cls-102" x="104" y="153.54" width="26.08" height="1.13"/>
    <rect class="cls-102" x="104" y="152.41" width="26.08" height="1.13"/>
    <rect class="cls-33" x="104" y="151.28" width="26.08" height="1.13"/>
    <rect class="cls-106" x="104" y="150.15" width="26.08" height="1.13"/>
    <rect class="cls-16" x="104" y="149.02" width="26.08" height="1.13"/>
    <rect class="cls-16" x="104" y="147.9" width="26.08" height="1.13"/>
    <rect class="cls-28" x="104" y="146.77" width="26.08" height="1.13"/>
    <rect class="cls-6" x="104" y="145.64" width="26.08" height="1.13"/>
    <rect class="cls-6" x="104" y="144.51" width="26.08" height="1.13"/>
    <rect class="cls-58" x="104" y="143.38" width="26.08" height="1.13"/>
    <rect class="cls-64" x="104" y="142.26" width="26.08" height="1.13"/>
    <rect class="cls-64" x="104" y="141.13" width="26.08" height="1.13"/>
    <rect class="cls-96" x="104" y="140" width="26.08" height="1.13"/>
    <rect class="cls-88" x="104" y="138.87" width="26.08" height="1.13"/>
    <rect class="cls-88" x="104" y="137.74" width="26.08" height="1.13"/>
    <rect class="cls-3" x="104" y="136.62" width="26.08" height="1.13"/>
    <rect class="cls-39" x="104" y="135.49" width="26.08" height="1.13"/>
    <rect class="cls-39" x="104" y="134.36" width="26.08" height="1.13"/>
    <rect class="cls-49" x="104" y="133.23" width="26.08" height="1.13"/>
    <rect class="cls-44" x="104" y="132.1" width="26.08" height="1.13"/>
    <rect class="cls-44" x="104" y="130.98" width="26.08" height="1.13"/>
    <rect class="cls-20" x="104" y="129.85" width="26.08" height="1.13"/>
    <rect class="cls-15" x="104" y="128.72" width="26.08" height="1.13"/>
    <rect class="cls-15" x="104" y="127.59" width="26.08" height="1.13"/>
    <rect class="cls-69" x="104" y="126.46" width="26.08" height="1.13"/>
    <rect class="cls-38" x="104" y="125.34" width="26.08" height="1.13"/>
    <rect class="cls-38" x="104" y="124.21" width="26.08" height="1.13"/>
    <rect class="cls-92" x="104" y="123.08" width="26.08" height="1.13"/>
    <rect class="cls-92" x="104" y="121.95" width="26.08" height="1.13"/>
    <rect class="cls-14" x="104" y="120.82" width="26.08" height="1.13"/>
    <rect class="cls-35" x="104" y="119.7" width="26.08" height="1.13"/>
    <rect class="cls-35" x="104" y="118.57" width="26.08" height="1.13"/>
    <rect class="cls-57" x="104" y="117.44" width="26.08" height="1.13"/>
    <rect class="cls-80" x="104" y="116.31" width="26.08" height="1.13"/>
    <rect class="cls-80" x="104" y="115.18" width="26.08" height="1.13"/>
    <rect class="cls-46" x="104" y="114.06" width="26.08" height="1.13"/>
    <rect class="cls-46" x="104" y="112.93" width="26.08" height="1.13"/>
    <rect class="cls-23" x="104" y="111.8" width="26.08" height="1.13"/>
    <rect class="cls-70" x="104" y="110.67" width="26.08" height="1.13"/>
    <rect class="cls-70" x="104" y="109.54" width="26.08" height="1.13"/>
    <rect class="cls-41" x="104" y="108.42" width="26.08" height="1.13"/>
    <rect class="cls-89" x="104" y="107.29" width="26.08" height="1.13"/>
    <rect class="cls-89" x="104" y="106.16" width="26.08" height="1.13"/>
    <rect class="cls-73" x="104" y="105.03" width="26.08" height="1.13"/>
    <rect class="cls-79" x="104" y="103.9" width="26.08" height="1.13"/>
    <rect class="cls-79" x="104" y="102.78" width="26.08" height="1.13"/>
    <rect class="cls-55" x="104" y="101.65" width="26.08" height="1.13"/>
    <rect class="cls-75" x="104" y="100.52" width="26.08" height="1.13"/>
    <rect class="cls-75" x="104" y="99.39" width="26.08" height="1.13"/>
    <rect class="cls-87" x="104" y="98.26" width="26.08" height="1.13"/>
    <rect class="cls-22" x="104" y="97.14" width="26.08" height="1.13"/>
    <rect class="cls-22" x="104" y="96.01" width="26.08" height="1.13"/>
    <rect class="cls-76" x="104" y="94.88" width="26.08" height="1.13"/>
    <rect class="cls-53" x="104" y="93.75" width="26.08" height="1.13"/>
    <rect class="cls-53" x="104" y="92.62" width="26.08" height="1.13"/>
    <rect class="cls-107" x="104" y="91.5" width="26.08" height="1.13"/>
    <rect class="cls-107" x="104" y="90.37" width="26.08" height="1.13"/>
    <rect class="cls-32" x="104" y="89.24" width="26.08" height="1.13"/>
    <rect class="cls-85" x="104" y="88.11" width="26.08" height="1.13"/>
    <rect class="cls-85" x="104" y="86.98" width="26.08" height="1.13"/>
    <rect class="cls-37" x="104" y="85.86" width="26.08" height="1.13"/>
    <rect class="cls-37" x="104" y="84.73" width="26.08" height="1.13"/>
    <rect class="cls-63" x="104" y="83.6" width="26.08" height="1.13"/>
    <rect class="cls-82" x="104" y="82.47" width="26.08" height="1.13"/>
    <rect class="cls-82" x="104" y="81.34" width="26.08" height="1.13"/>
    <rect class="cls-72" x="104" y="80.22" width="26.08" height="1.13"/>
    <rect class="cls-52" x="104" y="79.09" width="26.08" height="1.13"/>
    <rect class="cls-52" x="104" y="77.96" width="26.08" height="1.13"/>
    <rect class="cls-29" x="104" y="76.83" width="26.08" height="1.13"/>
    <rect class="cls-29" x="104" y="75.7" width="26.08" height="1.13"/>
    <rect class="cls-100" x="104" y="74.58" width="26.08" height="1.13"/>
    <rect class="cls-11" x="104" y="73.45" width="26.08" height="1.13"/>
    <rect class="cls-11" x="104" y="72.32" width="26.08" height="1.13"/>
    <rect class="cls-59" x="104" y="71.19" width="26.08" height="1.13"/>
    <rect class="cls-61" x="104" y="70.06" width="26.08" height="1.13"/>
    <rect class="cls-61" x="104" y="68.94" width="26.08" height="1.13"/>
    <rect class="cls-65" x="104" y="67.81" width="26.08" height="1.13"/>
    <rect class="cls-65" x="104" y="66.68" width="26.08" height="1.13"/>
    <rect class="cls-104" x="104" y="65.55" width="26.08" height="1.13"/>
    <rect class="cls-31" x="104" y="64.42" width="26.08" height="1.13"/>
    <rect class="cls-31" x="104" y="63.3" width="26.08" height="1.13"/>
    <rect class="cls-43" x="104" y="62.17" width="26.08" height="1.13"/>
    <rect class="cls-2" x="104" y="61.04" width="26.08" height="1.13"/>
    <rect class="cls-103" x="104" y="59.91" width="26.08" height="1.13"/>
    <rect class="cls-77" x="104" y="58.78" width="26.08" height="1.13"/>
    <rect class="cls-77" x="104" y="57.66" width="26.08" height="1.13"/>
    <rect class="cls-40" x="104" y="56.53" width="26.08" height="1.13"/>
    <rect class="cls-40" x="104" y="55.4" width="26.08" height="1.13"/>
  </g>
  <g class="cls-111">
    <rect class="cls-84" x="70.46" y="199.21" width="25.39" height="1.2"/>
    <rect class="cls-60" x="70.46" y="198.01" width="25.39" height="1.2"/>
    <rect class="cls-9" x="70.46" y="196.81" width="25.39" height="1.2"/>
    <rect class="cls-99" x="70.46" y="195.62" width="25.39" height="1.2"/>
    <rect class="cls-26" x="70.46" y="194.42" width="25.39" height="1.2"/>
    <rect class="cls-26" x="70.46" y="193.22" width="25.39" height="1.2"/>
    <rect class="cls-56" x="70.46" y="192.03" width="25.39" height="1.2"/>
    <rect class="cls-25" x="70.46" y="190.83" width="25.39" height="1.2"/>
    <rect class="cls-1" x="70.46" y="189.63" width="25.39" height="1.2"/>
    <rect class="cls-90" x="70.46" y="188.44" width="25.39" height="1.2"/>
    <rect class="cls-90" x="70.46" y="187.24" width="25.39" height="1.2"/>
    <rect class="cls-108" x="70.46" y="186.04" width="25.39" height="1.2"/>
    <rect class="cls-91" x="70.46" y="184.85" width="25.39" height="1.2"/>
    <rect class="cls-27" x="70.46" y="183.65" width="25.39" height="1.2"/>
    <rect class="cls-62" x="70.46" y="182.45" width="25.39" height="1.2"/>
    <rect class="cls-62" x="70.46" y="181.26" width="25.39" height="1.2"/>
    <rect class="cls-8" x="70.46" y="180.06" width="25.39" height="1.2"/>
    <rect class="cls-67" x="70.46" y="178.86" width="25.39" height="1.2"/>
    <rect class="cls-94" x="70.46" y="177.67" width="25.39" height="1.2"/>
    <rect class="cls-98" x="70.46" y="176.47" width="25.39" height="1.2"/>
    <rect class="cls-105" x="70.46" y="175.27" width="25.39" height="1.2"/>
    <rect class="cls-54" x="70.46" y="174.08" width="25.39" height="1.2"/>
    <rect class="cls-7" x="70.46" y="172.88" width="25.39" height="1.2"/>
    <rect class="cls-21" x="70.46" y="171.68" width="25.39" height="1.2"/>
    <rect class="cls-21" x="70.46" y="170.49" width="25.39" height="1.2"/>
    <rect class="cls-71" x="70.46" y="169.29" width="25.39" height="1.2"/>
    <rect class="cls-97" x="70.46" y="168.1" width="25.39" height="1.2"/>
    <rect class="cls-68" x="70.46" y="166.9" width="25.39" height="1.2"/>
    <rect class="cls-68" x="70.46" y="165.7" width="25.39" height="1.2"/>
    <rect class="cls-24" x="70.46" y="164.51" width="25.39" height="1.2"/>
    <rect class="cls-4" x="70.46" y="163.31" width="25.39" height="1.2"/>
    <rect class="cls-93" x="70.46" y="162.11" width="25.39" height="1.2"/>
    <rect class="cls-93" x="70.46" y="160.92" width="25.39" height="1.2"/>
    <rect class="cls-5" x="70.46" y="159.72" width="25.39" height="1.2"/>
    <rect class="cls-86" x="70.46" y="158.52" width="25.39" height="1.2"/>
    <rect class="cls-86" x="70.46" y="157.33" width="25.39" height="1.2"/>
    <rect class="cls-101" x="70.46" y="156.13" width="25.39" height="1.2"/>
    <rect class="cls-95" x="70.46" y="154.93" width="25.39" height="1.2"/>
    <rect class="cls-50" x="70.46" y="153.74" width="25.39" height="1.2"/>
    <rect class="cls-50" x="70.46" y="152.54" width="25.39" height="1.2"/>
    <rect class="cls-47" x="70.46" y="151.34" width="25.39" height="1.2"/>
    <rect class="cls-78" x="70.46" y="150.15" width="25.39" height="1.2"/>
    <rect class="cls-19" x="70.46" y="148.95" width="25.39" height="1.2"/>
    <rect class="cls-19" x="70.46" y="147.75" width="25.39" height="1.2"/>
    <rect class="cls-48" x="70.46" y="146.56" width="25.39" height="1.2"/>
    <rect class="cls-66" x="70.46" y="145.36" width="25.39" height="1.2"/>
    <rect class="cls-66" x="70.46" y="144.16" width="25.39" height="1.2"/>
    <rect class="cls-18" x="70.46" y="142.97" width="25.39" height="1.2"/>
    <rect class="cls-30" x="70.46" y="141.77" width="25.39" height="1.2"/>
    <rect class="cls-30" x="70.46" y="140.57" width="25.39" height="1.2"/>
    <rect class="cls-42" x="70.46" y="139.38" width="25.39" height="1.2"/>
    <rect class="cls-83" x="70.46" y="138.18" width="25.39" height="1.2"/>
    <rect class="cls-13" x="70.46" y="136.98" width="25.39" height="1.2"/>
    <rect class="cls-13" x="70.46" y="135.79" width="25.39" height="1.2"/>
    <rect class="cls-74" x="70.46" y="134.59" width="25.39" height="1.2"/>
    <rect class="cls-34" x="70.46" y="133.39" width="25.39" height="1.2"/>
    <rect class="cls-34" x="70.46" y="132.2" width="25.39" height="1.2"/>
    <rect class="cls-36" x="70.46" y="131" width="25.39" height="1.2"/>
    <rect class="cls-51" x="70.46" y="129.8" width="25.39" height="1.2"/>
    <rect class="cls-10" x="70.46" y="128.61" width="25.39" height="1.2"/>
    <rect class="cls-17" x="70.46" y="127.41" width="25.39" height="1.2"/>
    <rect class="cls-81" x="70.46" y="126.21" width="25.39" height="1.2"/>
    <rect class="cls-102" x="70.46" y="125.02" width="25.39" height="1.2"/>
    <rect class="cls-102" x="70.46" y="123.82" width="25.39" height="1.2"/>
    <rect class="cls-33" x="70.46" y="122.62" width="25.39" height="1.2"/>
    <rect class="cls-106" x="70.46" y="121.43" width="25.39" height="1.2"/>
    <rect class="cls-16" x="70.46" y="120.23" width="25.39" height="1.2"/>
    <rect class="cls-16" x="70.46" y="119.04" width="25.39" height="1.2"/>
    <rect class="cls-28" x="70.46" y="117.84" width="25.39" height="1.2"/>
    <rect class="cls-6" x="70.46" y="116.64" width="25.39" height="1.2"/>
    <rect class="cls-6" x="70.46" y="115.45" width="25.39" height="1.2"/>
    <rect class="cls-58" x="70.46" y="114.25" width="25.39" height="1.2"/>
    <rect class="cls-64" x="70.46" y="113.05" width="25.39" height="1.2"/>
    <rect class="cls-64" x="70.46" y="111.86" width="25.39" height="1.2"/>
    <rect class="cls-96" x="70.46" y="110.66" width="25.39" height="1.2"/>
    <rect class="cls-88" x="70.46" y="109.46" width="25.39" height="1.2"/>
    <rect class="cls-88" x="70.46" y="108.27" width="25.39" height="1.2"/>
    <rect class="cls-3" x="70.46" y="107.07" width="25.39" height="1.2"/>
    <rect class="cls-39" x="70.46" y="105.87" width="25.39" height="1.2"/>
    <rect class="cls-39" x="70.46" y="104.68" width="25.39" height="1.2"/>
    <rect class="cls-49" x="70.46" y="103.48" width="25.39" height="1.2"/>
    <rect class="cls-44" x="70.46" y="102.28" width="25.39" height="1.2"/>
    <rect class="cls-44" x="70.46" y="101.09" width="25.39" height="1.2"/>
    <rect class="cls-20" x="70.46" y="99.89" width="25.39" height="1.2"/>
    <rect class="cls-15" x="70.46" y="98.69" width="25.39" height="1.2"/>
    <rect class="cls-15" x="70.46" y="97.5" width="25.39" height="1.2"/>
    <rect class="cls-69" x="70.46" y="96.3" width="25.39" height="1.2"/>
    <rect class="cls-38" x="70.46" y="95.1" width="25.39" height="1.2"/>
    <rect class="cls-38" x="70.46" y="93.91" width="25.39" height="1.2"/>
    <rect class="cls-92" x="70.46" y="92.71" width="25.39" height="1.2"/>
    <rect class="cls-92" x="70.46" y="91.51" width="25.39" height="1.2"/>
    <rect class="cls-14" x="70.46" y="90.32" width="25.39" height="1.2"/>
    <rect class="cls-35" x="70.46" y="89.12" width="25.39" height="1.2"/>
    <rect class="cls-35" x="70.46" y="87.92" width="25.39" height="1.2"/>
    <rect class="cls-57" x="70.46" y="86.73" width="25.39" height="1.2"/>
    <rect class="cls-80" x="70.46" y="85.53" width="25.39" height="1.2"/>
    <rect class="cls-80" x="70.46" y="84.33" width="25.39" height="1.2"/>
    <rect class="cls-46" x="70.46" y="83.14" width="25.39" height="1.2"/>
    <rect class="cls-46" x="70.46" y="81.94" width="25.39" height="1.2"/>
    <rect class="cls-23" x="70.46" y="80.74" width="25.39" height="1.2"/>
    <rect class="cls-70" x="70.46" y="79.55" width="25.39" height="1.2"/>
    <rect class="cls-70" x="70.46" y="78.35" width="25.39" height="1.2"/>
    <rect class="cls-41" x="70.46" y="77.15" width="25.39" height="1.2"/>
    <rect class="cls-89" x="70.46" y="75.96" width="25.39" height="1.2"/>
    <rect class="cls-89" x="70.46" y="74.76" width="25.39" height="1.2"/>
    <rect class="cls-73" x="70.46" y="73.56" width="25.39" height="1.2"/>
    <rect class="cls-79" x="70.46" y="72.37" width="25.39" height="1.2"/>
    <rect class="cls-79" x="70.46" y="71.17" width="25.39" height="1.2"/>
    <rect class="cls-55" x="70.46" y="69.98" width="25.39" height="1.2"/>
    <rect class="cls-75" x="70.46" y="68.78" width="25.39" height="1.2"/>
    <rect class="cls-75" x="70.46" y="67.58" width="25.39" height="1.2"/>
    <rect class="cls-87" x="70.46" y="66.39" width="25.39" height="1.2"/>
    <rect class="cls-22" x="70.46" y="65.19" width="25.39" height="1.2"/>
    <rect class="cls-22" x="70.46" y="63.99" width="25.39" height="1.2"/>
    <rect class="cls-76" x="70.46" y="62.8" width="25.39" height="1.2"/>
    <rect class="cls-53" x="70.46" y="61.6" width="25.39" height="1.2"/>
    <rect class="cls-53" x="70.46" y="60.4" width="25.39" height="1.2"/>
    <rect class="cls-107" x="70.46" y="59.21" width="25.39" height="1.2"/>
    <rect class="cls-107" x="70.46" y="58.01" width="25.39" height="1.2"/>
    <rect class="cls-32" x="70.46" y="56.81" width="25.39" height="1.2"/>
    <rect class="cls-85" x="70.46" y="55.62" width="25.39" height="1.2"/>
    <rect class="cls-85" x="70.46" y="54.42" width="25.39" height="1.2"/>
    <rect class="cls-37" x="70.46" y="53.22" width="25.39" height="1.2"/>
    <rect class="cls-37" x="70.46" y="52.03" width="25.39" height="1.2"/>
    <rect class="cls-63" x="70.46" y="50.83" width="25.39" height="1.2"/>
    <rect class="cls-82" x="70.46" y="49.63" width="25.39" height="1.2"/>
    <rect class="cls-82" x="70.46" y="48.44" width="25.39" height="1.2"/>
    <rect class="cls-72" x="70.46" y="47.24" width="25.39" height="1.2"/>
    <rect class="cls-52" x="70.46" y="46.04" width="25.39" height="1.2"/>
    <rect class="cls-52" x="70.46" y="44.85" width="25.39" height="1.2"/>
    <rect class="cls-29" x="70.46" y="43.65" width="25.39" height="1.2"/>
    <rect class="cls-29" x="70.46" y="42.45" width="25.39" height="1.2"/>
    <rect class="cls-100" x="70.46" y="41.26" width="25.39" height="1.2"/>
    <rect class="cls-11" x="70.46" y="40.06" width="25.39" height="1.2"/>
    <rect class="cls-11" x="70.46" y="38.86" width="25.39" height="1.2"/>
    <rect class="cls-59" x="70.46" y="37.67" width="25.39" height="1.2"/>
    <rect class="cls-61" x="70.46" y="36.47" width="25.39" height="1.2"/>
    <rect class="cls-61" x="70.46" y="35.27" width="25.39" height="1.2"/>
    <rect class="cls-65" x="70.46" y="34.08" width="25.39" height="1.2"/>
    <rect class="cls-65" x="70.46" y="32.88" width="25.39" height="1.2"/>
    <rect class="cls-104" x="70.46" y="31.68" width="25.39" height="1.2"/>
    <rect class="cls-31" x="70.46" y="30.49" width="25.39" height="1.2"/>
    <rect class="cls-31" x="70.46" y="29.29" width="25.39" height="1.2"/>
    <rect class="cls-43" x="70.46" y="28.09" width="25.39" height="1.2"/>
    <rect class="cls-2" x="70.46" y="26.9" width="25.39" height="1.2"/>
    <rect class="cls-103" x="70.46" y="25.7" width="25.39" height="1.2"/>
    <rect class="cls-77" x="70.46" y="24.5" width="25.39" height="1.2"/>
    <rect class="cls-77" x="70.46" y="23.31" width="25.39" height="1.2"/>
    <rect class="cls-40" x="70.46" y="22.11" width="25.39" height="1.2"/>
    <rect class="cls-40" x="70.46" y="20.92" width="25.39" height="1.2"/>
  </g>
</svg>